<?xml version="1.0" encoding="utf-8"?>
<!-- Generator: Adobe Illustrator 18.0.0, SVG Export Plug-In . SVG Version: 6.00 Build 0)  -->
<!DOCTYPE svg PUBLIC "-//W3C//DTD SVG 1.1//EN" "http://www.w3.org/Graphics/SVG/1.1/DTD/svg11.dtd">
<svg version="1.1" id="Layer_1" xmlns="http://www.w3.org/2000/svg" xmlns:xlink="http://www.w3.org/1999/xlink" x="0px" y="0px"
	 viewBox="0 0 1140 500" enable-background="new 0 0 1140 500" xml:space="preserve">
<rect fill="#E6E7E8" stroke="#000000" stroke-miterlimit="10" width="1140" height="500"/>
<g>
	<g>
		<path fill="#FE0907" stroke="#010101" stroke-miterlimit="10" d="M988.4,123.3c0.2-0.5,0.6-0.3,0.9-0.3c14.8,0,29.6,0,44.3,0
			c0.9,0,1.3,0.2,1.4,1.2c0.1,1.1,0.2,2.2,0.2,3.4c0,0.8-0.2,1.5-0.7,2.2c-0.6,1-1.3,2.1-0.2,3.3c0.2,0.2,0.1,0.6,0.1,0.8
			c0,1,0.3,1.8,1.2,2.3c0.8,0.5,1,1.4,1.3,2.2c0.3,1.1,0.9,2,1.9,2.5c0.7,0.4,1,0.9,0.9,1.7c-0.1,0.9,0.1,1.6,0.7,2.3
			c0.4,0.5,0.6,1.1,0.6,1.7c-0.1,1,0.1,1.8,1,2.4c0.7,0.4,0.4,1.1,0.2,1.7c-0.3,1.1-0.5,2.2,1,2.7c0.2,0.1,0.3,0.3,0.3,0.5
			c-0.2,1.3,0.5,2,1.5,2.6c0.6,0.4,0.6,1.1,0.6,1.8c0.1,8.6-0.1,17.2,0.3,25.8c0.3,5.3-0.4,10.6,0.8,15.8c0.2,0.8,0.1,1.6,0.1,2.4
			c-0.3,7.4,0.9,14.8,0.5,22.2c-0.1,1.1-0.2,2.2-0.2,3.4c0,3.3-0.3,6.7,0.6,9.9c0.7,2.4,0,4.9-0.2,7.3c-0.2,2.4-0.1,4.7,0.3,7.1
			c0.7,4.6,0.5,9.3,0.6,14c0,0.5-0.2,0.8-0.7,1c-1.8,0.9-2.3,2.7-1.2,4.4c0.6,1,0.1,3-1,3.4c-0.8,0.3-1,0.7-0.7,1.4
			c0.4,1.1,0.6,2.1,1.7,2.9c0.7,0.5,0.7,1.7,0.7,2.7c0,0.9,0,1.6,1.2,1.7c1,0.1,1.5,1.4,1.1,2.6c-0.2,0.6-0.5,1.2-0.7,1.7
			c-0.3,0.6-0.5,1,0.3,1.4c0.5,0.2,0.3,0.8,0.4,1.3c0.4,1.7,0.9,3.5,0.6,5.3c-0.1,0.8-0.3,1.7-1.1,1.9c-2.7,0.9-3.3,3.1-3.6,5.5
			c0,0.2-0.1,0.3-0.1,0.5c0,1.2-0.3,2.1-1.5,2.8c-1.4,0.9-1.7,2.7-2.2,4.3c-0.2,0.7-0.5,1.2-1.3,1.5c-1.1,0.4-1.7,1.3-1.6,2.4
			c0,1-0.4,1.3-1.2,1.5c-0.3,0.1-0.6,0.3-0.8,0.2c-2-0.3-2.1,1.4-2.8,2.5c-0.2,0.4-0.1,0.7,0.2,1c0.3,0.2,0.5,0.4,0.7,0.7
			c0.9,1,0.7,2.3-0.5,3c-1,0.5-1.7,1-1.1,2.3c0.2,0.4,0.1,0.8-0.4,1c-0.8,0.3-0.8,0.8-0.5,1.4c0.5,1.2,0.2,2.2-0.2,3.5
			c-0.5,1.5-1.2,3.4-0.5,5c0.5,1.2,0.6,2.1,0.2,3.3c-0.3,1.1-0.7,1.9-1.9,2.2c-1,0.3-1.3,1.7-2.5,1.9c-0.3,0.1,0,0.9,0.1,1.3
			c0.2,1.5,0.5,2.9,1.9,3.8c1.1,0.6,1.5,1.8,1.8,3.1c0.1,0.7,0,1.2-0.8,1.2c-2.5,0.2-4.9,1.2-7.5,1.3c-0.5,0-0.7,0.3-0.9,0.7
			c-0.8,1.4-1.7,1.7-3.2,1.3c-1.4-0.3-2.5-0.2-2.8,1.5c-0.2,1.2-0.7,2.3-1,3.5c-0.2,0.7-0.1,1.2,0.5,1.8c1.2,1.3,2.1,2.8,2.4,4.5
			c0.4,2-0.5,4-2.2,4.7c-1.4,0.6-3.7-0.2-4.4-1.5c-0.3-0.6-0.6-1.1-1.4-0.9c-0.1,0-0.3,0-0.4,0c-0.9-1.3-2.4-1-3.7-1
			c-0.6,0-1.1-0.5-1.2-1c-0.3-0.8-0.8-1-1.5-1.1c-2.1-0.5-4.1-1.2-6.2-1.9c-1.2-1.1-2.2-2.5-3.3-3.7c-4.4-5.3-7.9-11.1-9.8-17.7
			c-1.8-6-1.7-12.1,0.4-18.2c1.8-5.3,3.8-10.4,5.2-15.8c1.3-4.9,2.1-9.9,0.8-15c-1.3-5.1-3.5-9.9-6.6-14.2c-1.7-2.3-3.2-4.8-5.1-7
			c-3.5-4.2-7.2-8.1-12-11c-4.2-2.5-8.2-5.2-12.3-7.9c-0.3-0.2-0.7-0.2-0.7-0.6c0-0.5,0.5-0.4,0.9-0.5c5.1-1.5,10.3-1.6,15.5-0.6
			c4.8,0.9,9.3,2.6,13.8,4.8c4.1,2,7.9,4.2,11.2,7.3c2.1,2,4.2,4,6.3,6.1c0.3,0.3,0.7,0.8,1,0.1c1.4-2.8,3.8-4.6,6.2-6.4
			c1.1-0.8,2.1-1.6,3-2.6c0.3-0.3,0.8-0.5,0.6-1c-0.2-0.4-0.7-0.1-1-0.1c-2,0-4,0.1-6,0c-2.4-0.1-4.7-0.2-7-1
			c-2.6-0.8-3.4-2-3.5-4.6c0-2.3,0.6-4.6,1.2-6.8c0.3-1.2,0-1.4-1.1-1.4c-4.7,0-9.4-0.1-14.1-0.7c-2.6-0.3-3-1-2.6-3.6
			c0.1-0.3,0.1-0.7,0.2-1c0.5-1.8,1.2-3.5,2.1-5.2c0.6-1.2,0.6-1.2-0.8-1.2c-2,0-3.9,0-5.9,0c-1.5,0-1.5,0-1.4-1.5
			c0.4-4.3,2-8.2,3.9-12c3.1-6.2,7.5-11.6,11.6-17.1c3.5-4.6,7-9.2,9.8-14.3c0.6-1.2,0.6-1.2-0.7-1.2c-5.1,0-10.2,0.2-15.4-0.2
			c-3.3-0.3-4.1-0.9-3-4.4c1.3-4.2,2.6-8.3,3.7-12.6c0.2-0.6,0.3-0.9,1.1-0.5c5.5,2.6,10.7,1.9,15.8-1.2c1.3-0.8,2.4-1.7,2.9-3.1
			c0.7-1.8,0.2-3.3-1.5-4.2c-3.3-1.8-6.7-2.2-10.2-0.8c-3.5,1.3-6.2,3.7-8.7,6.3c-1.2,1.2-2.2,2.6-3.3,3.9c-0.5,0.6-0.7,0.6-1.2,0
			c-1.2-1.3-2.6-2.5-3.7-3.9c-1.2-1.5-2.4-2.3-4.2-1.1c-0.2,0.1-0.6,0.2-0.8,0.2c-2.9,0.2-4.4,0.2-5-3.4c-0.5-3.3-1.5-6.4-4.3-8.6
			c-1.2-1-1.9-2.5-2-4.2c-0.1-1.1,0.2-1.8,1.2-2.3c4.7-2.7,9.4-5.6,14.1-8.2c1.9-1.1,3.1-2.4,3.6-4.5c0.6-2.5,1.4-5.1,3.1-7.2
			C981.5,126.7,984.9,125,988.4,123.3z M1005,311.6c0,2,0.4,3.5,0.8,4.9c0.2,0.6,0.6,0.8,1.2,0.7c2.1-0.3,4.1-0.4,6.2-0.8
			c3.6-0.7,6.1-2.6,6.8-6.4c0.6-3.1,0.9-6.3,1.4-9.4c0.1-0.9-0.4-0.8-1-0.8c-3.2,0.2-6.3,0.9-9.1,2.5
			C1007.6,304.4,1005.2,307.5,1005,311.6z M987.7,135.8c-1.4,0.8-2.8,1.3-4.2,1.9c-1,0.4-1.2,1.3-0.8,2.2c0.4,0.9,1.2,0.8,1.9,0.6
			C986.5,140.1,987.8,138.2,987.7,135.8z"/>
		<path fill="none" stroke="#010101" stroke-miterlimit="10" d="M988.4,123.3c-3.5,1.7-6.9,3.4-9.4,6.6c-1.7,2.1-2.4,4.7-3.1,7.2
			c-0.6,2.2-1.7,3.5-3.6,4.5c-4.8,2.6-9.4,5.5-14.1,8.2c-1,0.6-1.3,1.3-1.2,2.3c0.1,1.7,0.7,3.2,2,4.2c2.8,2.3,3.8,5.3,4.3,8.6
			c0.5,3.6,2.1,3.6,5,3.4c0.3,0,0.6,0,0.8-0.2c1.8-1.2,3-0.4,4.2,1.1c1.1,1.4,2.5,2.6,3.7,3.9c0.5,0.6,0.8,0.5,1.2,0
			c1.1-1.3,2.1-2.7,3.3-3.9c2.5-2.6,5.2-5,8.7-6.3c3.5-1.3,7-0.9,10.2,0.8c1.6,0.9,2.1,2.4,1.5,4.2c-0.5,1.5-1.6,2.4-2.9,3.1
			c-5.1,3.2-10.3,3.8-15.8,1.2c-0.8-0.4-0.9-0.1-1.1,0.5c-1,4.3-2.3,8.4-3.7,12.6c-1.1,3.6-0.3,4.2,3,4.4c5.1,0.4,10.2,0.2,15.4,0.2
			c1.3,0,1.3,0,0.7,1.2c-2.8,5.1-6.3,9.7-9.8,14.3c-4.1,5.5-8.5,10.9-11.6,17.1c-1.9,3.8-3.5,7.7-3.9,12c-0.1,1.5-0.1,1.5,1.4,1.5
			c2,0,3.9,0,5.9,0c1.4,0,1.4,0,0.8,1.2c-0.9,1.7-1.6,3.4-2.1,5.2c-0.1,0.3-0.2,0.6-0.2,1c-0.4,2.6,0,3.2,2.6,3.6
			c4.7,0.6,9.4,0.7,14.1,0.7c1.1,0,1.5,0.1,1.1,1.4c-0.6,2.2-1.2,4.4-1.2,6.8c0,2.7,0.9,3.8,3.5,4.6c2.3,0.7,4.7,0.9,7,1
			c2,0.1,4,0,6,0c0.4,0,0.8-0.3,1,0.1c0.2,0.5-0.3,0.7-0.6,1c-0.9,1-1.9,1.8-3,2.6c-2.4,1.8-4.8,3.6-6.2,6.4c-0.4,0.8-0.7,0.2-1-0.1
			c-2.1-2-4.2-4.1-6.3-6.1c-3.3-3.1-7.2-5.4-11.2-7.3c-4.4-2.1-8.9-3.9-13.8-4.8c-5.2-1-10.4-0.9-15.5,0.6c-0.3,0.1-0.8,0-0.9,0.5
			c0,0.4,0.4,0.5,0.7,0.6c4.1,2.6,8.1,5.3,12.3,7.9c4.8,2.9,8.5,6.8,12,11c1.8,2.2,3.4,4.7,5.1,7c3.1,4.3,5.3,9,6.6,14.2
			c1.3,5,0.5,10-0.8,15c-1.4,5.4-3.5,10.5-5.2,15.8c-2,6.1-2.2,12.2-0.4,18.2c2,6.6,5.4,12.4,9.8,17.7c1.1,1.3,2.1,2.6,3.3,3.7
			c-0.5,1-1.5,1.5-2.4,2.2c-0.9,0.6-1.4,1.4-1.5,2.4c-0.1,0.9-0.5,1.5-1.3,2c-1.8,1.2-1.9,2.1-0.7,3.6c0.3,0.4,0.7,0.5,1.2,0.6
			c0.2,0,0.3,0.2,0.3,0.4c0,0.2-0.2,0.3-0.4,0.3c-0.7,0-1.5,0-2.2,0c-0.4,0-0.5-0.3-0.4-0.6c0.1-0.7-0.4-1-0.8-1.3
			c-0.6-0.4-0.9-0.3-1.1,0.5c-0.4,1.7-1.1,1.9-2.3,0.6c-0.7-0.7-1.5-1-2.3-1.5c-0.8-0.6-1.2-1.2-1.1-2.2c0.1-0.7,0.1-1.4-0.9-1.5
			c-0.3,0-0.3-0.3-0.4-0.6c-0.6-1.5-1.6-2.9-1.7-4.7c0-0.4-0.2-0.6-0.6-0.7c-1-0.3-1.3-1.2-1.4-2.1c-0.1-0.8,0.4-1.4,0.6-2.1
			c0.3-1,1.1-0.8,1.8-0.9c1.1-0.2,1-1.1,0.9-1.9c-0.1-1.3-0.9-2.2-1.6-3.2c-0.7-1-1.6-2-2-3.2c-0.3-0.9-0.3-1.8,0.3-2.6
			c0.5-0.6,0.5-1.3-0.1-1.9c-0.4-0.3-0.5-0.7-0.4-1.1c0.2-1.1-0.4-1.7-1.3-2.2c-0.8-0.4-1.7-0.8-2.5-1.3c-0.9-0.5-1.8-1.1-1.4-2.3
			c0.2-0.6-0.3-0.8-0.7-1c-1.1-0.6-2.3-1.2-3.4-1.9c-0.6-0.3-1.1-0.7-1.4-1.3c-0.4-0.7-0.9-1.1-1.7-0.1c-0.8,1.1-2.2,1-3-0.1
			c-0.6-0.8-1.5-1.7-0.8-2.9c0.1-0.2,0.1-0.5-0.2-0.7c-0.9-0.4-1.3-1.2-1.9-1.9c-0.4-0.5-1-0.8-1.6-0.8c-1.1,0-1.9-0.4-2.2-1.6
			c-0.1-0.4-0.4-0.8-0.9-0.8c-1.9,0-2.7-1.3-3.5-2.8c-0.5-0.9-0.7-2.1-2.2-2.2c-0.6,0-0.7-1-0.9-1.5c-0.9-2.4-1.4-4.8-0.9-7.3
			c0.2-1,0.7-1.9,1.8-2.2c1.1-0.4,1.6-1.2,1.5-2.4c-0.2-2.1,1.1-3.8,1.8-5.6c0.2-0.5,1-0.4,1.3-1.1c0.6-1.2,0.4-2.3-0.1-3.4
			c-0.6-1.2-0.5-2.2,0.5-3.2c0.9-0.9,1.7-1.9,2.2-3.2c0.3-0.7,0.2-1.1-0.6-1.3c-1.2-0.3-2.3-0.8-2.7-2.1c-0.1-0.5-0.6-0.5-1.1-0.4
			c-1.8,0.2-3.2-0.3-4.6-1.5c-1.5-1.4-2.4-1.2-3.6,0.5c-0.9,1.2-1.4,2.7-3.1,3.2c-0.6,0.2-1.2,0.4-1.7-0.2c-0.3-0.3-0.7-0.6-1.1-0.8
			c-1.2-0.8-1.7-1.8-1.4-3.2c0.1-0.9,0.1-1.7-0.9-2.4c-0.9-0.6-0.9-2.9-0.1-3.6c0.5-0.5,0.7-1,0.2-1.5c-0.8-1-0.7-2.2-0.7-3.3
			c0-1.2,0-2.5-1.5-2.9c-0.2-0.1-0.3-0.3-0.3-0.5c-0.4-1.6-1.5-2.6-2.7-3.4c-1.9-1.3-3.8-2.5-5.8-3.7c-1.1-0.7-1.7-1.6-2.1-2.8
			c-0.4-1.4-1-2.6-2.8-2.6c-0.4,0-0.6-0.2-0.7-0.6c-0.1-1.2-1-1.9-1.8-2.7c-0.7-0.6-1.4-1.2-1.7-2.1c-0.1-0.2-0.3-0.4-0.5-0.5
			c-2-1.2-2.9-3-3-5.3c0-0.9-0.2-1.4-1.2-1.7c-1.3-0.4-2-2.2-1.4-3.5c0.7-1.6,0.5-3-0.8-4.1c-0.8-0.7-1-1.6-0.9-2.6
			c0.2-2.9-0.7-5.7-0.4-8.6c0.1-1.9,0.4-3.7,1.3-5.4c0.6-1.2,1.4-2.1,2.7-2.4c0.6-0.2,0.8-0.5,0.8-1.1c0-1.2,0.1-2.3,0.2-3.5
			c0-0.8-0.3-1.4-0.8-1.9c-0.5-0.7-0.6-1.4,0.2-1.9c0.1,0,0.1-0.1,0.2-0.2c1.4-2.8,4-3.4,6.9-3.6c2.4-0.2,2.4-0.3,2.6-2.7
			c0.1-1.3,0.3-2.6,0.5-3.8c0.2-0.9,0.4-1.8,1.4-2.2c0.7-0.3,0.8-1,1.2-1.5c0.5-0.7,1.1-1.2,1.8-1.7c0.2-0.2,0.5-0.4,0.5-0.7
			c0-2.4,1.1-4.7,0.4-7.1c-0.4-1.4-0.9-2.6-2.5-2.9c-0.1,0-0.3-0.1-0.3-0.2c-0.4-2.1-3.2-3.3-2-6c0.8-1.8,1.4-3.8,1.6-5.9
			c0.1-0.8,1.7-1.5,2.6-1.2c1.7,0.8,3,0.5,4.2-0.9c0.3-0.3,0.6-0.3,1-0.3c0.7,0.1,1.4,0.1,2.1,0.2c1.9,0.4,3.7,0.2,5.3-1
			c0.1-0.1,0.3-0.2,0.4-0.3c0.3-1.7,1.7-1.5,2.9-1.6c0.4,0,0.8-0.1,1.2,0c0.9,0.2,1.4-0.1,1.7-0.9c0.3-0.9,1-1.4,2-1.4
			c0.9,0,1.2-0.5,1.4-1.3c0.4-1.7,0.6-3.4,0.7-5.2c0-0.8,0.3-1.3,1-1.7c1.2-0.8,2.4-1.7,3.5-2.6c0.8-0.6,0.8-2.1,0.9-3.2
			c0.1-0.7,0-1.5-0.1-2.2c-0.1-0.6-0.4-1.3,0.5-1.7c0.4-0.2,0.2-0.6,0.2-0.9c-0.2-1.7-0.4-3.3-0.6-5c0-0.3-0.1-0.5-0.3-0.7
			c-1.8-1.3-3.4-3-5.7-3.7c-2.6-0.8-3.2-2.3-2.8-4.9c0.1-0.7,0-1.2-0.6-1.7c-1.2-1.1-2.5-2.1-3.8-3.1c-1.1-0.9-2.7-1.7-3.5-3.1
			c-0.6-1.1-0.5-1.3,0.9-1.5c9.4-0.8,18.8-0.5,28.2-0.4c7,0.1,13.9,0,20.9,0.1C987.4,123,988,122.8,988.4,123.3z"/>
		<path fill="#FFFFFF" d="M1005,311.6c0.1-4,2.6-7.1,6.4-9.2c2.8-1.6,5.9-2.3,9.1-2.5c0.6,0,1.1-0.1,1,0.8c-0.5,3.1-0.8,6.3-1.4,9.4
			c-0.8,3.8-3.2,5.7-6.8,6.4c-2,0.4-4.1,0.5-6.2,0.8c-0.6,0.1-1-0.1-1.2-0.7C1005.4,315,1005,313.6,1005,311.6z"/>
		<path fill="#FFFFFF" d="M987.7,135.8c0,2.3-1.2,4.2-3.1,4.7c-0.7,0.2-1.6,0.3-1.9-0.6c-0.4-0.9-0.2-1.8,0.8-2.2
			C985,137.2,986.4,136.6,987.7,135.8z"/>
	</g>
	<polygon fill="#E6E7E8" stroke="#000000" stroke-miterlimit="10" points="1020.1,214.3 1022.1,218.5 1026.7,219.1 1023.4,222.4 
		1024.2,227 1020.1,224.8 1015.9,227 1016.7,222.4 1013.4,219.1 1018,218.5 	"/>
</g>
</svg>
